Coordinates
nRows=200
nColumns=2
inDegrees=yes
endheader
time	ankle_angle_r	
2.92742	 -0.473022	
2.96069	 -0.473022	
2.99395	 -0.454148	
3.02722	 -0.430958	
3.06048	 -0.469214	
3.09375	 -0.492187	
3.12702	 -0.473022	
3.16028	 -0.488281	
3.19355	 -0.529862	
3.22681	 -0.499248	
3.26008	 -0.492670	
3.29335	 -0.538543	
3.32661	 -0.492864	
3.35988	 -0.508219	
3.39315	 -0.528350	
3.42641	 -0.503540	
3.45968	 -0.498219	
3.49294	 -0.523865	
3.52621	 -0.523961	
3.55948	 -0.503540	
3.59274	 -0.524155	
3.62601	 -0.524251	
3.65927	 -0.514638	
3.69254	 -0.528412	
3.72581	 -0.503540	
3.75907	 -0.488281	
3.79234	 -0.528122	
3.8256	 -0.500346	
3.85887	 -0.497411	
3.89214	 -0.558349	
3.9254	 -0.518799	
3.95867	 -0.494701	
3.99194	 -0.540574	
4.0252	 -0.494894	
4.05847	 -0.503540	
4.09173	 -0.540864	
4.125	 -0.503540	
4.15827	 -0.473022	
4.19153	 -0.518799	
4.2248	 -0.519672	
4.25806	 -0.442505	
4.29133	 -0.495667	
4.3246	 -0.503833	
4.35786	 -0.457664	
4.39113	 -0.427246	
4.4244	 -0.480508	
4.45766	 -0.450375	
4.49093	 -0.465056	
4.52419	 -0.504407	
4.55746	 -0.465923	
4.59073	 -0.473022	
4.62399	 -0.473022	
4.65726	 -0.466213	
4.69052	 -0.494994	
4.72379	 -0.435889	
4.75706	 -0.466504	
4.79032	 -0.464186	
4.82359	 -0.466697	
4.85685	 -0.439704	
4.89012	 -0.473022	
4.92339	 -0.466987	
4.95665	 -0.445886	
4.98992	 -0.467180	
5.02319	 -0.473022	
5.05645	 -0.417636	
5.08972	 -0.503540	
5.12298	 -0.478478	
5.15625	 -0.452405	
5.18952	 -0.503540	
5.22278	 -0.483116	
5.25605	 -0.457764	
5.28931	 -0.503540	
5.32258	 -0.477898	
5.35585	 -0.427246	
5.38911	 -0.524694	
5.42238	 -0.514214	
5.45565	 -0.436223	
5.48891	 -0.514407	
5.52218	 -0.503540	
5.55544	 -0.431445	
5.58871	 -0.488281	
5.62198	 -0.465774	
5.65524	 -0.449947	
5.68851	 -0.526422	
5.72177	 -0.434676	
5.75504	 -0.473022	
5.78831	 -0.507062	
5.82157	 -0.515374	
5.85484	 -0.439177	
5.8881	 -0.506772	
5.92137	 -0.488281	
5.95464	 -0.491320	
5.9879	 -0.494164	
6.02117	 -0.488281	
6.05444	 -0.460512	
6.0877	 -0.518799	
6.12097	 -0.490836	
6.15423	 -0.505998	
6.1875	 -0.534058	
6.22077	 -0.490546	
6.25403	 -0.494786	
6.2873	 -0.549316	
6.32056	 -0.503540	
6.35383	 -0.520677	
6.3871	 -0.549316	
6.42036	 -0.503540	
6.45363	 -0.520387	
6.4869	 -0.537040	
6.52016	 -0.531268	
6.55343	 -0.532760	
6.58669	 -0.535259	
6.61996	 -0.517694	
6.65323	 -0.533050	
6.68649	 -0.534058	
6.71976	 -0.532429	
6.75302	 -0.520234	
6.78629	 -0.534058	
6.81956	 -0.504589	
6.85282	 -0.504396	
6.88609	 -0.534058	
6.91935	 -0.533823	
6.95262	 -0.519074	
6.98589	 -0.534058	
7.01915	 -0.518910	
7.05242	 -0.518494	
7.08569	 -0.564077	
7.11895	 -0.518799	
7.15222	 -0.503540	
7.18548	 -0.548777	
7.21875	 -0.518799	
7.25202	 -0.502075	
7.28528	 -0.548487	
7.31855	 -0.504466	
7.35181	 -0.456741	
7.38508	 -0.491639	
7.41835	 -0.458980	
7.45161	 -0.500915	
7.48488	 -0.532648	
7.51815	 -0.445517	
7.55141	 -0.442505	
7.58468	 -0.518799	
7.61794	 -0.486485	
7.65121	 -0.503540	
7.68448	 -0.530079	
7.71774	 -0.516713	
7.75101	 -0.534058	
7.78427	 -0.531778	
7.81754	 -0.516423	
7.85081	 -0.544371	
7.88407	 -0.531488	
7.91734	 -0.503540	
7.9506	 -0.528532	
7.98387	 -0.534058	
8.01714	 -0.503540	
8.0504	 -0.555416	
8.08367	 -0.558276	
8.11694	 -0.527565	
8.1502	 -0.530715	
8.18347	 -0.537497	
8.21673	 -0.515262	
8.25	 -0.549316	
8.28327	 -0.534058	
8.31653	 -0.522625	
8.3498	 -0.545393	
8.38306	 -0.522819	
8.41633	 -0.514682	
8.4496	 -0.549316	
8.48286	 -0.542677	
8.51613	 -0.518799	
8.5494	 -0.544813	
8.58266	 -0.549316	
8.61593	 -0.535227	
8.64919	 -0.564575	
8.68246	 -0.554795	
8.71573	 -0.508826	
8.74899	 -0.513716	
8.78226	 -0.508720	
8.81552	 -0.493558	
8.84879	 -0.524172	
8.88206	 -0.534058	
8.91532	 -0.482714	
8.94859	 -0.473022	
8.98185	 -0.507279	
9.01512	 -0.478879	
9.04839	 -0.528104	
9.08165	 -0.512749	
9.11492	 -0.512652	
9.14819	 -0.564575	
9.18145	 -0.540398	
9.21472	 -0.512362	
9.24798	 -0.518799	
9.28125	 -0.566573	
9.31452	 -0.512072	
9.34778	 -0.549316	
9.38105	 -0.549316	
9.41431	 -0.517574	
9.44758	 -0.565607	
9.48085	 -0.549316	
9.51411	 -0.556624	
9.54738	 -0.564124	
